<svg width="500" height="400" viewBox="0 0 500 400" fill="none" xmlns="http://www.w3.org/2000/svg">
  <!-- Background elements -->
  <rect x="50" y="50" width="400" height="300" rx="20" fill="#F5F7FA"/>
  
  <!-- Document illustration -->
  <rect x="100" y="100" width="180" height="240" rx="8" fill="white" stroke="#0F1E4E" stroke-width="2"/>
  <rect x="120" y="130" width="140" height="20" rx="4" fill="#E0E0E0"/>
  <rect x="120" y="160" width="100" height="20" rx="4" fill="#E0E0E0"/>
  <rect x="120" y="190" width="140" height="20" rx="4" fill="#E0E0E0"/>
  <rect x="120" y="220" width="80" height="20" rx="4" fill="#E0E0E0"/>
  <rect x="120" y="250" width="120" height="20" rx="4" fill="#E0E0E0"/>
  <rect x="120" y="280" width="60" height="20" rx="4" fill="#E0E0E0"/>
  
  <!-- Photo placeholder -->
  <rect x="220" y="220" width="40" height="50" rx="4" fill="#71D3FF" stroke="#0F1E4E" stroke-width="1"/>
  <circle cx="240" cy="235" r="8" fill="#0F1E4E"/>
  <path d="M230 250 Q240 260, 250 250" stroke="#0F1E4E" stroke-width="2" fill="none"/>
  
  <!-- Verification checkmark -->
  <circle cx="350" cy="200" r="50" fill="#71D3FF" opacity="0.8"/>
  <path d="M325 200 L345 220 L375 180" stroke="#0F1E4E" stroke-width="6" stroke-linecap="round" stroke-linejoin="round" fill="none"/>
  
  <!-- Blockchain elements -->
  <circle cx="350" cy="100" r="20" fill="#0F1E4E" opacity="0.8"/>
  <circle cx="400" cy="150" r="15" fill="#0F1E4E" opacity="0.6"/>
  <circle cx="380" cy="250" r="25" fill="#0F1E4E" opacity="0.7"/>
  <circle cx="420" cy="300" r="18" fill="#0F1E4E" opacity="0.5"/>
  
  <!-- Connection lines -->
  <line x1="350" y1="120" x2="380" y2="150" stroke="#0F1E4E" stroke-width="2" opacity="0.5"/>
  <line x1="350" y1="150" x2="350" y2="180" stroke="#0F1E4E" stroke-width="2" opacity="0.5"/>
  <line x1="350" y1="250" x2="380" y2="250" stroke="#0F1E4E" stroke-width="2" opacity="0.5"/>
  <line x1="380" y1="275" x2="420" y2="300" stroke="#0F1E4E" stroke-width="2" opacity="0.5"/>
  <line x1="400" y1="165" x2="380" y2="225" stroke="#0F1E4E" stroke-width="2" opacity="0.5"/>
</svg> 